<svg viewBox="0 0 50 50" xmlns="http://www.w3.org/2000/svg"><path d="M25.188 0c-6.978 0-7.83.03-10.526 0-2.63.272-4.448.694-6.015 1.128-1.667.823-3.06 1.678-4.512 3.007-1.33 1.45-2.184 2.845-3.007 4.512C.694 10.214.272 12.032 0 14.662c.03 2.697 0 3.548 0 10.526 0 6.602.03 7.453 0 10.15.272 2.63.694 4.448 1.128 6.015.823 1.667 1.678 3.06 3.007 4.512 1.45 1.33 2.845 2.184 4.512 3.007 1.567.434 3.385.856 6.015 1.128 2.697-.03 3.548 0 10.526 0 6.602 0 7.453-.03 10.15 0 2.63-.272 4.448-.694 6.015-1.128 1.667-.823 3.06-1.678 4.512-3.007 1.33-1.45 2.184-2.845 3.007-4.512.434-1.567.856-3.385 1.128-6.015-.03-2.697 0-3.548 0-10.15 0-6.978-.03-7.83 0-10.526-.272-2.63-.694-4.448-1.128-6.015-.823-1.667-1.678-3.06-3.007-4.512-1.45-1.33-2.845-2.184-4.512-3.007C39.786.694 37.968.272 35.338 0c-2.697.03-3.548 0-10.15 0zm0 4.51c6.485 0 7.276.027 9.774 0 2.573.258 3.897.665 4.888 1.13 1.056.33 1.888.872 2.63 1.88 1.008.742 1.55 1.574 1.88 2.63.465.99.872 2.315 1.13 4.888-.027 2.498 0 3.29 0 10.15 0 6.485-.027 7.276 0 9.774-.258 2.573-.665 3.897-1.13 4.888-.33 1.056-.872 1.888-1.88 2.63-.742 1.008-1.574 1.55-2.63 1.88-.99.465-2.315.872-4.888 1.13-2.498-.027-3.288 0-9.774 0-6.862 0-7.652-.027-10.15 0-2.573-.258-3.897-.665-4.888-1.13-1.056-.33-1.888-.872-2.63-1.88-1.007-.742-1.55-1.574-1.88-2.63-.465-.99-.872-2.315-1.13-4.888.027-2.498 0-3.29 0-9.774 0-6.86.027-7.652 0-10.15.258-2.573.665-3.897 1.13-4.888.33-1.056.872-1.888 1.88-2.63.742-1.008 1.574-1.55 2.63-1.88.99-.465 2.315-.872 4.888-1.13 2.498.027 3.29 0 10.15 0zm16.165 7.144c0 1.66-1.346 3.008-3.007 3.008-1.66 0-3.008-1.347-3.008-3.008 0-1.66 1.347-3.007 3.008-3.007 1.66 0 3.007 1.346 3.007 3.007zm-16.54.752c-7.06 0-12.783 5.723-12.783 12.782 0 7.06 5.723 12.782 12.782 12.782 7.06 0 12.782-5.723 12.782-12.782 0-7.06-5.723-12.782-12.782-12.782zm0 21.053c-4.57 0-8.272-3.704-8.272-8.272s3.704-8.27 8.272-8.27 8.27 3.702 8.27 8.27-3.702 8.27-8.27 8.27z" fill-rule="evenodd"/></svg>