<svg viewBox="0 0 181 52" xmlns="http://www.w3.org/2000/svg"><path d="M24.488 31.792c-2.376 1.242-5.94 2.43-8.964 2.43-3.618 0-6.318-1.674-6.696-5.346h18.09c.432-1.512.648-3.456.648-4.914 0-7.29-5.4-11.124-11.718-11.124-3.996 0-7.668 1.512-10.476 4.32C2.348 20.182.728 24.502.728 28.552c0 8.154 6.48 12.042 13.716 12.042 2.97 0 6.318-.648 8.694-1.674l1.35-7.128zm-14.958-8.1c1.08-2.7 3.132-4.59 5.94-4.59 2.754 0 4.59 1.728 4.644 4.59H9.53zM30.158 40h8.208l3.132-17.874c1.458-1.35 3.564-2.214 5.4-2.214 1.836 0 3.24.918 3.24 3.294 0 .108 0 .54-.216 1.674L47.276 40h8.208l2.754-15.66c.162-.918.216-1.512.27-2.214 1.62-1.35 3.564-2.214 5.4-2.214 2.106 0 3.348 1.134 3.348 2.97 0 .648-.162 1.674-.216 1.998L64.394 40h8.208l2.754-15.66c.216-1.188.324-2.322.324-3.186 0-4.968-3.348-8.316-8.856-8.316-2.268 0-5.832.594-9.45 3.834-1.404-2.376-4.05-3.834-7.182-3.834-2.916 0-5.454 1.242-7.614 3.024l-.108-.054.432-2.376h-8.046L30.158 40zM80 28.282c0 7.668 5.778 12.312 13.23 12.312 4.428 0 8.262-1.62 11.016-4.428 2.916-2.97 4.428-7.128 4.428-11.016 0-7.668-5.778-12.312-13.23-12.312-4.428 0-8.262 1.62-11.016 4.428C81.512 20.236 80 24.394 80 28.282zm8.208-.54c0-2.106.756-4.32 2.052-5.832 1.08-1.242 2.7-2.052 4.752-2.052 3.564 0 5.454 2.484 5.454 5.832 0 2.106-.756 4.32-2.052 5.832-1.08 1.242-2.7 2.052-4.752 2.052-3.564 0-5.454-2.484-5.454-5.832zm41.958 5.076c-1.08.54-2.376.864-3.51.864-1.998 0-2.97-1.026-2.97-2.862 0-.54.108-1.296.216-1.89l1.512-8.694h6.966l1.188-6.804h-6.966l1.404-7.83-8.316.486-1.296 7.344h-4.32l-1.188 6.804h4.32l-1.566 8.856c-.216 1.296-.378 2.538-.378 3.456 0 5.778 4.536 8.046 9.234 8.046 1.62 0 3.24-.27 4.428-.702l1.242-7.074zm9.288-27.594c0 2.43 1.89 4.482 4.482 4.482 2.754 0 5.022-2.106 5.022-4.914 0-2.43-1.89-4.482-4.482-4.482-2.754 0-5.022 2.106-5.022 4.914zM133.892 40h8.208l4.698-26.568h-8.208L133.892 40zm44.658-24.678c-3.456-1.404-7.668-2.484-11.934-2.484-5.076 0-9.072 1.512-12.042 4.374-3.186 3.024-4.914 7.452-4.914 11.718 0 6.966 4.536 11.664 10.476 11.664 2.376 0 4.428-.756 5.994-1.998l.108.054-2.322 13.23h8.208l6.426-36.558zM167.318 32.44c-1.35.918-2.862 1.458-4.32 1.458-3.024 0-5.076-2.214-5.076-5.724 0-2.106.756-4.428 2.16-6.102 1.188-1.458 3.078-2.484 5.724-2.484 1.35 0 2.7.27 3.672.648l-2.16 12.204z" fill-rule="evenodd"/></svg>