<svg viewBox="0 0 55 50" xmlns="http://www.w3.org/2000/svg"><path d="M17.296 48c20.755 0 32.107-17.314 32.107-32.33 0-.49 0-.98-.033-1.468 2.21-1.608 4.115-3.6 5.63-5.88-2.06.918-4.244 1.52-6.48 1.787 2.354-1.42 4.117-3.655 4.96-6.286-2.215 1.323-4.64 2.256-7.166 2.758-3.497-3.745-9.055-4.662-13.557-2.236-4.502 2.426-6.827 7.59-5.673 12.6-9.073-.46-17.526-4.774-23.256-11.873C.833 10.265 2.363 16.907 7.322 20.24c-1.796-.053-3.553-.54-5.122-1.42v.143c0 5.41 3.788 10.067 9.053 11.138-1.66.457-3.404.524-5.095.196 1.478 4.628 5.714 7.8 10.542 7.89-3.996 3.163-8.932 4.88-14.014 4.874-.898-.002-1.795-.056-2.686-.164C5.16 46.23 11.165 48 17.296 47.99" fill-rule="evenodd"/></svg>